<svg width="16" height="16" viewBox="0 0 16 16" fill="none" xmlns="http://www.w3.org/2000/svg">
<path d="M5.08302 4.26634L6.94968 1.84968C7.08302 1.6719 7.24146 1.54146 7.42502 1.45834C7.60857 1.37523 7.80013 1.33346 7.99968 1.33301C8.19924 1.33257 8.39102 1.37434 8.57502 1.45834C8.75902 1.54234 8.91724 1.67279 9.04968 1.84968L10.9163 4.26634L13.7497 5.21634C14.0386 5.30523 14.2663 5.46923 14.433 5.70834C14.5997 5.94746 14.683 6.21123 14.683 6.49968C14.683 6.63301 14.6635 6.76635 14.6243 6.89968C14.5852 7.03301 14.5215 7.16079 14.433 7.28301L12.5997 9.88301L12.6663 12.6163C12.6775 13.0052 12.5497 13.333 12.283 13.5997C12.0163 13.8663 11.7052 13.9997 11.3497 13.9997C11.3275 13.9997 11.2052 13.983 10.983 13.9497L7.99968 13.1163L5.01635 13.9497C4.96079 13.9719 4.89968 13.9859 4.83302 13.9917C4.76635 13.9975 4.70524 14.0001 4.64968 13.9997C4.29413 13.9997 3.98302 13.8663 3.71635 13.5997C3.44968 13.333 3.3219 13.0052 3.33302 12.6163L3.39968 9.86635L1.58302 7.28301C1.49413 7.16079 1.43013 7.03301 1.39102 6.89968C1.3519 6.76635 1.33257 6.63301 1.33302 6.49968C1.33302 6.2219 1.41368 5.96368 1.57502 5.72501C1.73635 5.48634 1.96124 5.31679 2.24968 5.21634L5.08302 4.26634Z" fill="#6F6D73"/>
</svg>
